<?xml version="1.0" encoding="UTF-8"?>
<svg version="1.1" xmlns="http://www.w3.org/2000/svg" width="32" height="32">
<path d="M0,0 L9,0 L9,1 L11,1 L11,2 L12,2 L12,3 L13,3 L13,4 L14,4 L14,5 L15,5 L15,6 L16,6 L16,8 L17,8 L17,11 L18,11 L18,16 L19,16 L19,24 L18,24 L18,26 L16,26 L16,27 L15,27 L15,28 L10,28 L10,29 L9,29 L9,30 L7,30 L7,31 L3,31 L3,30 L-1,30 L-1,29 L-2,29 L-2,30 L-3,30 L-3,29 L-5,29 L-5,30 L-4,30 L-4,32 L-6,32 L-6,31 L-8,31 L-8,29 L-9,29 L-9,30 L-11,30 L-11,29 L-12,29 L-12,24 L-13,24 L-13,19 L-12,19 L-12,16 L-11,16 L-11,14 L-10,14 L-10,8 L-9,8 L-9,6 L-8,6 L-8,5 L-7,5 L-7,4 L-6,4 L-6,3 L-4,3 L-4,2 L-2,2 L-2,1 L0,1 Z " fill="#464049" transform="translate(13,0)"/>
<path d="M0,0 L9,0 L9,1 L11,1 L11,2 L12,2 L12,3 L13,3 L13,4 L14,4 L14,5 L15,5 L15,6 L16,6 L16,8 L17,8 L17,24 L16,24 L16,25 L14,25 L14,24 L13,24 L13,25 L12,25 L12,26 L8,26 L8,25 L9,25 L9,23 L11,23 L11,22 L12,22 L12,21 L13,21 L13,18 L10,18 L10,9 L11,9 L11,6 L10,6 L10,5 L6,5 L6,6 L4,6 L4,4 L3,4 L3,5 L1,5 L1,4 L0,4 L0,3 L-1,3 L-1,2 L0,2 Z " fill="#242229" transform="translate(13,0)"/>
<path d="M0,0 L3,0 L3,5 L5,5 L5,6 L6,6 L6,7 L10,7 L10,8 L9,8 L9,12 L0,12 L0,18 L-1,18 L-1,24 L-3,24 L-3,25 L-5,25 L-5,24 L-6,24 L-6,19 L-7,19 L-7,14 L-6,14 L-6,11 L-5,11 L-5,9 L-4,9 L-4,6 L-3,6 L-3,5 L-2,5 L-2,3 L-1,3 L-1,1 L0,1 Z " fill="#130E16" transform="translate(7,5)"/>
<path d="M0,0 L2,0 L2,2 L4,2 L4,4 L3,4 L3,5 L4,5 L4,10 L3,10 L3,14 L2,14 L2,16 L1,16 L1,17 L0,17 L0,16 L-4,16 L-4,15 L-5,15 L-5,16 L-6,16 L-6,15 L-8,15 L-8,16 L-7,16 L-7,18 L-9,18 L-9,17 L-11,17 L-11,15 L-10,15 L-10,9 L-9,9 L-9,3 L0,3 Z " fill="#594F5D" transform="translate(16,14)"/>
<path d="M0,0 L6,0 L6,1 L8,1 L8,2 L10,2 L10,7 L8,7 L8,8 L6,8 L6,9 L2,9 L2,8 L4,8 L4,6 L1,6 L1,7 L0,7 L0,6 L-1,6 L-1,1 L0,1 Z " fill="#F8C4C1" transform="translate(9,18)"/>
<path d="M0,0 L1,0 L1,5 L2,5 L2,13 L1,13 L1,15 L-1,15 L-1,16 L-2,16 L-2,17 L-7,17 L-7,18 L-8,18 L-8,19 L-10,19 L-10,20 L-13,20 L-13,19 L-12,19 L-12,17 L-11,17 L-11,13 L-10,13 L-10,11 L-9,11 L-9,9 L-8,9 L-8,14 L-9,14 L-9,15 L-5,15 L-5,14 L-4,14 L-4,13 L-3,13 L-3,14 L-1,14 L-1,13 L0,13 Z " fill="#3B353F" transform="translate(30,11)"/>
<path d="M0,0 L1,0 L1,2 L0,2 L0,4 L-1,4 L-1,9 L-2,9 L-2,11 L-3,11 L-3,23 L-2,23 L-2,24 L-3,24 L-3,25 L-5,25 L-5,24 L-6,24 L-6,19 L-7,19 L-7,14 L-6,14 L-6,11 L-5,11 L-5,9 L-4,9 L-4,6 L-3,6 L-3,5 L-2,5 L-2,3 L-1,3 L-1,1 L0,1 Z " fill="#191E2C" transform="translate(7,5)"/>
<path d="M0,0 L8,0 L8,1 L10,1 L10,7 L13,7 L13,10 L12,10 L12,11 L11,11 L11,12 L9,12 L9,9 L8,9 L8,11 L7,11 L7,8 L6,8 L6,7 L7,7 L7,5 L5,5 L5,3 L3,3 L3,2 L4,2 L4,1 L0,1 Z " fill="#563F42" transform="translate(13,11)"/>
<path d="M0,0 L1,0 L1,13 L-1,13 L-1,12 L-2,12 L-2,13 L-3,13 L-3,14 L-7,14 L-7,13 L-6,13 L-6,11 L-4,11 L-4,10 L-3,10 L-3,9 L-2,9 L-2,6 L-1,6 L-1,5 L0,5 Z " fill="#15131A" transform="translate(28,12)"/>
<path d="M0,0 L2,0 L2,2 L4,2 L4,4 L3,4 L3,5 L4,5 L4,10 L3,10 L3,6 L1,6 L1,5 L-1,5 L-1,4 L-7,4 L-7,5 L-8,5 L-8,8 L-9,8 L-9,3 L0,3 Z " fill="#946F75" transform="translate(16,14)"/>
<path d="M0,0 L1,0 L1,3 L2,3 L2,9 L1,9 L1,15 L0,15 L0,14 L-1,14 L-1,2 L0,2 Z " fill="#1B1823" transform="translate(5,14)"/>
<path d="M0,0 L2,0 L2,3 L1,3 L1,5 L0,5 L0,6 L-1,6 L-1,5 L-5,5 L-5,4 L-6,4 L-6,5 L-7,5 L-7,1 L-6,1 L-6,2 L-2,2 L-2,1 L0,1 Z " fill="#967178" transform="translate(17,25)"/>
<path d="M0,0 L1,0 L1,6 L2,6 L2,7 L3,7 L3,10 L4,10 L4,11 L3,11 L3,12 L1,12 L1,11 L0,11 L0,6 L-1,6 L-1,1 L0,1 Z " fill="#4C4E57" transform="translate(1,18)"/>
<path d="M0,0 L1,0 L1,1 L5,1 L5,2 L9,2 L9,3 L7,3 L7,4 L2,4 L2,6 L1,6 L1,5 L0,5 Z " fill="#453B44" transform="translate(11,5)"/>
<path d="M0,0 L3,0 L3,6 L1,6 L1,7 L0,7 L0,6 L-1,6 L-1,1 L0,1 Z " fill="#E1A9A9" transform="translate(9,18)"/>
<path d="M0,0 L1,0 L1,3 L5,3 L5,4 L6,4 L6,2 L7,2 L7,5 L-1,5 L-1,1 L0,1 Z " fill="#4D363A" transform="translate(9,12)"/>
<path d="M0,0 L1,0 L1,1 L2,1 L2,2 L6,2 L6,3 L5,3 L5,4 L4,4 L4,6 L3,6 L3,5 L-1,5 L-1,3 L0,3 Z " fill="#271D24" transform="translate(11,10)"/>
<path d="M0,0 L8,0 L8,1 L10,1 L10,2 L9,2 L9,3 L8,3 L8,2 L6,2 L6,5 L5,5 L5,3 L3,3 L3,2 L4,2 L4,1 L0,1 Z " fill="#41353B" transform="translate(13,11)"/>
<path d="M0,0 L2,0 L2,3 L-3,3 L-3,4 L-7,4 L-7,2 L-2,2 L-2,1 L0,1 Z " fill="#705862" transform="translate(20,7)"/>
<path d="M0,0 L3,0 L3,6 L0,6 Z " fill="#FDE0DC" transform="translate(12,18)"/>
</svg>
